<svg width="35" height="35" viewBox="0 0 35 35" fill="none" xmlns="http://www.w3.org/2000/svg">
<path d="M27 0H8C3.58172 0 0 3.58172 0 8V27C0 31.4183 3.58172 35 8 35H27C31.4183 35 35 31.4183 35 27V8C35 3.58172 31.4183 0 27 0Z" fill="#FBD449" fill-opacity="0.15"/>
<path d="M23.9507 13H11.0501C10.4718 13 10 13.4718 10 14.05V20.95C10 21.5268 10.4718 22 11.0493 22H23.9499C24.5275 22 25 21.5268 25 20.95V14.05C25.0007 13.4718 24.5275 13 23.9507 13ZM18.2504 14.5H19.7505V16H18.2504V14.5ZM20.5005 16.75V18.25H19.0004V16.75H20.5005ZM16.0003 14.5H17.5004V16H16.0003V14.5ZM18.2504 16.75V18.25H16.7503V16.75H18.2504ZM13.7502 14.5H15.2503V16H13.7502V14.5ZM16.0003 16.75V18.25H14.5002V16.75H16.0003ZM11.5001 14.5H13.0001V16H11.5001V14.5ZM13.7502 16.75V18.25H12.2501V16.75H13.7502ZM13.0001 20.5H11.5001V19H13.0001V20.5ZM21.2506 20.5H13.7502V19H21.2506V20.5ZM23.5007 20.5H22.0006V19H23.5007V20.5ZM21.2506 18.25V16.75H22.7506V18.25H21.2506ZM23.5007 16H20.5005V14.5H23.5007V16Z" fill="#FBD449"/>
</svg>
