<svg width="35" height="35" viewBox="0 0 35 35" fill="none" xmlns="http://www.w3.org/2000/svg">
<g clip-path="url(#clip0_425_4854)">
<path d="M27 0H8C3.58172 0 0 3.58172 0 8V27C0 31.4183 3.58172 35 8 35H27C31.4183 35 35 31.4183 35 27V8C35 3.58172 31.4183 0 27 0Z" fill="#B1CC33" fill-opacity="0.15"/>
<path d="M18 26.125C13.5199 26.125 9.875 22.4801 9.875 18C9.875 13.5199 13.5199 9.875 18 9.875C22.4801 9.875 26.125 13.5199 26.125 18C26.125 22.4801 22.4801 26.125 18 26.125ZM18 11.125C14.2109 11.125 11.125 14.2109 11.125 18C11.125 21.7891 14.2109 24.875 18 24.875C21.7891 24.875 24.875 21.791 24.875 18C24.875 14.209 21.791 11.125 18 11.125Z" fill="#B1CC33"/>
<path d="M20.6434 19.4063C19.9637 19.4063 19.307 19.1047 18.7941 18.5574C18.2868 18.0072 17.9835 17.2996 17.9348 16.5527C17.8773 15.7441 18.1254 15 18.6332 14.4582C19.141 13.9164 19.8508 13.625 20.6434 13.625C21.4301 13.625 22.1422 13.9227 22.6484 14.4633C23.1547 15.0039 23.409 15.7523 23.3516 16.5535C23.3019 17.2999 22.9987 18.0069 22.4922 18.5574C21.9789 19.1047 21.3227 19.4063 20.6434 19.4063ZM14.3992 19.5375C13.2367 19.5375 12.2145 18.4629 12.1207 17.1418C12.0727 16.4652 12.2828 15.8398 12.7133 15.3809C13.1438 14.9219 13.7375 14.6777 14.3988 14.6777C15.0602 14.6777 15.6535 14.9293 16.0813 15.3863C16.509 15.8434 16.7258 16.473 16.677 17.1441C16.5816 18.4633 15.5598 19.5375 14.3992 19.5375ZM24.4207 21.8781C24.3586 21.6945 24.2074 21.4988 23.9043 21.3133C22.9879 20.7535 21.8605 20.4574 20.6434 20.4574C19.4492 20.4574 18.2906 20.766 17.3805 21.3266C16.3551 21.9582 15.666 22.8793 15.3883 23.9898C15.3227 24.2512 15.227 24.7375 15.3293 25.0098C16.9717 25.6343 18.7811 25.663 20.4424 25.0907C22.1038 24.5185 23.5117 23.3816 24.4211 21.8781H24.4207ZM14.3918 23.6785C14.668 22.5766 15.2559 21.6578 16.168 20.9148C16.2111 20.8793 16.2439 20.8328 16.2629 20.7802C16.282 20.7277 16.2865 20.671 16.2762 20.616C16.2659 20.5611 16.241 20.5099 16.2042 20.4679C16.1673 20.4258 16.1199 20.3944 16.0668 20.377C15.598 20.2273 15.0629 20.1473 14.3992 20.1473C13.4688 20.1473 12.4809 20.3992 11.7375 20.857C11.5266 20.9871 11.3195 21.0371 11.1602 21.0816C11.8 22.4959 12.8612 23.6779 14.1984 24.466L14.2684 24.4605C14.2837 24.1964 14.325 23.9345 14.3918 23.6785Z" fill="#B1CC33"/>
</g>
<defs>
<clipPath id="clip0_425_4854">
<rect width="35" height="35" fill="white"/>
</clipPath>
</defs>
</svg>
